<svg width="257" height="257" viewBox="0 0 257 257" fill="none" xmlns="http://www.w3.org/2000/svg">
<path d="M235.583 96.375V80.3125C235.583 73.2124 232.763 66.4032 227.742 61.3827C222.722 56.3622 215.913 53.5417 208.812 53.5417H58.8958C51.7958 53.5417 44.9865 56.3622 39.966 61.3827C34.9455 66.4032 32.125 73.2124 32.125 80.3125V96.375H235.583Z" fill="#0066FF"/>
<path d="M171.333 176.688C171.301 169.227 173.502 161.928 177.653 155.729C181.805 149.531 187.716 144.717 194.627 141.906C201.537 139.096 209.131 138.418 216.43 139.96C223.729 141.502 230.4 145.194 235.583 150.559V107.083H32.125V165.979C32.125 173.079 34.9455 179.889 39.966 184.909C44.9865 189.93 51.7958 192.75 58.8958 192.75H175.081C172.637 187.747 171.356 182.256 171.333 176.688ZM85.6667 165.979C85.6667 167.399 85.1026 168.761 84.0985 169.765C83.0944 170.769 81.7325 171.333 80.3125 171.333H58.8958C57.4758 171.333 56.114 170.769 55.1099 169.765C54.1058 168.761 53.5417 167.399 53.5417 165.979V144.563C53.5417 143.142 54.1058 141.781 55.1099 140.777C56.114 139.772 57.4758 139.208 58.8958 139.208H80.3125C81.7325 139.208 83.0944 139.772 84.0985 140.777C85.1026 141.781 85.6667 143.142 85.6667 144.563V165.979Z" fill="#DADADA"/>
<path d="M208.812 149.917C203.518 149.917 198.342 151.487 193.939 154.428C189.537 157.37 186.106 161.551 184.079 166.443C182.053 171.334 181.523 176.717 182.556 181.91C183.589 187.103 186.139 191.873 189.883 195.617C193.627 199.361 198.397 201.911 203.59 202.944C208.783 203.977 214.166 203.447 219.057 201.421C223.949 199.394 228.13 195.963 231.072 191.561C234.013 187.158 235.583 181.982 235.583 176.687C235.583 169.587 232.763 162.778 227.742 157.758C222.722 152.737 215.913 149.917 208.812 149.917ZM223.804 171.333L211.275 187.824C210.827 188.44 210.25 188.95 209.584 189.32C208.918 189.689 208.18 189.91 207.42 189.966C206.023 189.974 204.678 189.436 203.672 188.467L195.213 180.114C194.19 179.12 193.605 177.761 193.585 176.335C193.565 174.909 194.112 173.534 195.106 172.511C196.1 171.489 197.459 170.903 198.885 170.883C200.311 170.863 201.686 171.41 202.709 172.404L206.778 176.473L215.666 164.801C216.095 164.239 216.63 163.766 217.242 163.411C217.853 163.055 218.529 162.824 219.23 162.729C219.931 162.635 220.644 162.679 221.327 162.86C222.011 163.041 222.653 163.355 223.215 163.784C223.778 164.213 224.25 164.748 224.606 165.36C224.961 165.971 225.193 166.647 225.287 167.348C225.382 168.049 225.337 168.762 225.156 169.446C224.975 170.129 224.661 170.771 224.232 171.333H223.804Z" fill="#0066FF"/>
</svg>
